<?xml version="1.0" encoding="utf-8"?>
<!-- Generator: Adobe Illustrator 25.2.3, SVG Export Plug-In . SVG Version: 6.00 Build 0)  -->
<svg version="1.1" id="Layer_1" xmlns="http://www.w3.org/2000/svg" xmlns:xlink="http://www.w3.org/1999/xlink" x="0px" y="0px"
	 viewBox="0 0 351.3 539.9" style="enable-background:new 0 0 351.3 539.9;" xml:space="preserve">
<style type="text/css">
	.st0{opacity:0.65;}
	.st1{fill:#1D71B8;}
	.st2{fill:#CDE9F7;}
	.st3{fill:#36A9E1;}
	.st4{fill:#78B7E5;}
	.st5{fill:none;}
	.st6{font-family:'MyriadPro-Bold';}
	.st7{font-size:14px;}
	.st8{font-family:'MyriadPro-Regular';}
	.st9{fill:none;stroke:#71CBF4;stroke-width:10;stroke-miterlimit:10;}
	.st10{fill:none;stroke:#1D71B8;stroke-width:10;stroke-miterlimit:10;}
	.st11{fill:none;stroke:#009FE3;stroke-width:10;stroke-miterlimit:10;}
	.st12{fill:#009FE3;stroke:#009FE3;stroke-miterlimit:10;}
	.st13{fill:none;stroke:#71CAF3;stroke-width:5;stroke-miterlimit:10;}
	.st14{fill:none;stroke:#71CAF3;stroke-width:8;stroke-miterlimit:10;}
	.st15{font-family:'AllRoundGothic-Book';}
	.st16{font-size:44.4376px;}
	.st17{fill:#D4161A;}
	.st18{font-family:'BrushScriptMT';}
	.st19{font-size:71px;}
	.st20{fill:none;stroke:#000000;stroke-width:0.75;stroke-miterlimit:10;}
</style>
<g class="st0">
	<g>
		<g>
			<path class="st1" d="M314.2,406.2c3.9,0,7.7-3.5,7.5-7.5c-0.2-4.1-3.3-7.5-7.5-7.5c-3.9,0-7.7,3.5-7.5,7.5
				C306.8,402.8,310,406.2,314.2,406.2L314.2,406.2z"/>
		</g>
	</g>
	<g>
		<g>
			<path class="st1" d="M115.3,277.3c3.9,0,7.7-3.5,7.5-7.5c-0.2-4.1-3.3-7.5-7.5-7.5c-3.9,0-7.7,3.5-7.5,7.5
				C108,273.8,111.1,277.3,115.3,277.3L115.3,277.3z"/>
		</g>
	</g>
	<g>
		<g>
			<path class="st1" d="M102.4,403.9c3.9,0,7.7-3.5,7.5-7.5c-0.2-4.1-3.3-7.5-7.5-7.5c-3.9,0-7.7,3.5-7.5,7.5
				C95.1,400.4,98.2,403.9,102.4,403.9L102.4,403.9z"/>
		</g>
	</g>
	<g>
		<g>
			<path class="st2" d="M41.6,299.2c2.6,0,5.1-2.3,5-5c-0.1-2.7-2.2-5-5-5c-2.6,0-5.1,2.3-5,5C36.7,296.9,38.7,299.2,41.6,299.2
				L41.6,299.2z"/>
		</g>
	</g>
	<g>
		<g>
			<path class="st3" d="M138.8,343.9c3.9,0,7.7-3.5,7.5-7.5c-0.2-4.1-3.3-7.5-7.5-7.5c-3.9,0-7.7,3.5-7.5,7.5
				C131.5,340.5,134.6,343.9,138.8,343.9L138.8,343.9z"/>
		</g>
	</g>
	<g>
		<g>
			<path class="st3" d="M288,312.9c3.9,0,7.7-3.5,7.5-7.5c-0.2-4.1-3.3-7.5-7.5-7.5c-3.9,0-7.7,3.5-7.5,7.5
				C280.7,309.5,283.8,312.9,288,312.9L288,312.9z"/>
		</g>
	</g>
	<g>
		<g>
			<path class="st4" d="M220.4,399.5c3.9,0,7.7-3.5,7.5-7.5c-0.2-4.1-3.3-7.5-7.5-7.5c-3.9,0-7.7,3.5-7.5,7.5
				C213.1,396.1,216.2,399.5,220.4,399.5L220.4,399.5z"/>
		</g>
	</g>
	<g>
		<g>
			<path class="st4" d="M161.2,225.9c2.6,0,5.1-2.3,5-5c-0.1-2.7-2.2-5-5-5c-2.6,0-5.1,2.3-5,5C156.3,223.6,158.4,225.9,161.2,225.9
				L161.2,225.9z"/>
		</g>
	</g>
	<g>
		<g>
			<path class="st4" d="M68.7,488c2.6,0,5.1-2.3,5-5c-0.1-2.7-2.2-5-5-5c-2.6,0-5.1,2.3-5,5C63.8,485.7,65.9,488,68.7,488L68.7,488z
				"/>
		</g>
	</g>
	<g>
		<g>
			<path class="st4" d="M12.8,179.2c2.6,0,5.1-2.3,5-5c-0.1-2.7-2.2-5-5-5c-2.6,0-5.1,2.3-5,5C7.9,176.9,10,179.2,12.8,179.2
				L12.8,179.2z"/>
		</g>
	</g>
	<g>
		<g>
			<path class="st4" d="M315.7,245.7c3.2,0,3.2-5,0-5S312.5,245.7,315.7,245.7L315.7,245.7z"/>
		</g>
	</g>
	<g>
		<g>
			<path class="st4" d="M46.8,350c3.2,0,3.2-5,0-5C43.6,345,43.6,350,46.8,350L46.8,350z"/>
		</g>
	</g>
	<g>
		<g>
			<path class="st2" d="M16.3,212.2c3.2,0,3.2-5,0-5S13.1,212.2,16.3,212.2L16.3,212.2z"/>
		</g>
	</g>
	<g>
		<g>
			<path class="st2" d="M123.2,352.2c3.2,0,3.2-5,0-5C120,347.2,120,352.2,123.2,352.2L123.2,352.2z"/>
		</g>
	</g>
	<g>
		<g>
			<path class="st2" d="M28.7,423.3c3.2,0,3.2-5,0-5C25.5,418.3,25.4,423.3,28.7,423.3L28.7,423.3z"/>
		</g>
	</g>
	<g>
		<g>
			<path class="st2" d="M298.5,414.5c3.2,0,3.2-5,0-5S295.3,414.5,298.5,414.5L298.5,414.5z"/>
		</g>
	</g>
	<g>
		<g>
			<path class="st2" d="M165.6,267.8c3.2,0,3.2-5,0-5C162.4,262.9,162.4,267.8,165.6,267.8L165.6,267.8z"/>
		</g>
	</g>
	<g>
		<g>
			<path class="st2" d="M-54.1,98.9c3.2,0,3.2-5,0-5C-57.3,93.9-57.4,98.9-54.1,98.9L-54.1,98.9z"/>
		</g>
	</g>
	<g>
		<g>
			<path class="st2" d="M21.8,525.5c3.2,0,3.2-5,0-5C18.6,520.5,18.6,525.5,21.8,525.5L21.8,525.5z"/>
		</g>
	</g>
</g>
<rect x="91" y="231.3" class="st5" width="141.6" height="327.8"/>
<text transform="matrix(1 0 0 1 29.9803 184.2644)" class="st6 st7">Sandwiches</text>
<text transform="matrix(1 0 0 1 29.9803 206.0644)" class="st8 st7">Egg </text>
<text transform="matrix(1 0 0 1 29.9803 222.8644)" class="st8 st7">Bacon</text>
<text transform="matrix(1 0 0 1 29.9803 239.6644)" class="st8 st7">Sausage</text>
<text transform="matrix(1 0 0 1 29.9803 256.4644)" class="st8 st7">Ham</text>
<text transform="matrix(1 0 0 1 29.9803 290.0644)" class="st6 st7">Pittas</text>
<text transform="matrix(1 0 0 1 29.9803 306.8644)" class="st8 st7"> </text>
<text transform="matrix(1 0 0 1 29.9803 311.8644)" class="st8 st7">Chicken</text>
<text transform="matrix(1 0 0 1 29.9803 328.6644)" class="st8 st7">Falafel</text>
<text transform="matrix(1 0 0 1 29.9803 345.4644)" class="st8 st7">Lamb</text>
<text transform="matrix(1 0 0 1 29.9803 362.2644)" class="st8 st7">Egg</text>
<text transform="matrix(1 0 0 1 29.9803 395.8644)" class="st6 st7">Others</text>
<text transform="matrix(1 0 0 1 29.9803 412.6644)" class="st8 st7"> </text>
<text transform="matrix(1 0 0 1 29.9803 417.6644)" class="st8 st7">English Muffin</text>
<text transform="matrix(1 0 0 1 29.9803 434.4644)" class="st8 st7">Cheese on Toast</text>
<text transform="matrix(1 0 0 1 29.9803 451.2644)" class="st8 st7">Salad Box</text>
<text transform="matrix(1 0 0 1 29.9803 468.0644)" class="st8 st7">Chips</text>
<rect x="187.6" y="222.4" class="st5" width="91.4" height="328.8"/>
<text transform="matrix(1 0 0 1 133.6484 184.3689)" class="st6 st7">Price</text>
<text transform="matrix(1 0 0 1 164.6484 184.3689)" class="st8 st7"> </text>
<text transform="matrix(1 0 0 1 133.6484 206.1689)" class="st8 st7">£2.00 </text>
<text transform="matrix(1 0 0 1 133.6484 222.9689)" class="st8 st7">£3.00 </text>
<text transform="matrix(1 0 0 1 133.6484 239.7689)" class="st8 st7">£3.00 </text>
<text transform="matrix(1 0 0 1 133.6484 256.5689)" class="st8 st7">£2.50</text>
<text transform="matrix(1 0 0 1 133.6484 290.1689)" class="st6 st7">Price</text>
<text transform="matrix(1 0 0 1 133.6484 306.9689)" class="st8 st7"> </text>
<text transform="matrix(1 0 0 1 133.6484 311.9689)" class="st8 st7">£3.00 </text>
<text transform="matrix(1 0 0 1 133.6484 328.7689)" class="st8 st7">£3.50 </text>
<text transform="matrix(1 0 0 1 133.6484 345.5689)" class="st8 st7">£3.00 </text>
<text transform="matrix(1 0 0 1 133.6484 362.3689)" class="st8 st7">£2.00 </text>
<text transform="matrix(1 0 0 1 133.6484 395.9689)" class="st6 st7">Price</text>
<text transform="matrix(1 0 0 1 133.6484 417.7689)" class="st8 st7">£2.00 </text>
<text transform="matrix(1 0 0 1 133.6484 434.5689)" class="st8 st7">£3.50 </text>
<text transform="matrix(1 0 0 1 133.6484 451.3689)" class="st8 st7">£3.00 </text>
<text transform="matrix(1 0 0 1 133.6484 468.1689)" class="st8 st7">£2.00</text>
<g>
	<path d="M87.1,100"/>
	<path d="M82.6,98.2"/>
	<g>
		<g>
			<g>
				<g>
					<path class="st1" d="M94.2,90c3.9,0,7.7-3.4,7.5-7.5c-0.2-4.1-3.3-7.5-7.5-7.5c-3.9,0-7.7,3.4-7.5,7.5C86.9,86.5,90,90,94.2,90
						L94.2,90z"/>
				</g>
			</g>
			<g>
				<g>
					<path class="st1" d="M240.8,51.1c3.9,0,7.7-3.4,7.5-7.5c-0.2-4.1-3.3-7.5-7.5-7.5c-3.9,0-7.7,3.4-7.5,7.5
						C233.5,47.6,236.6,51.1,240.8,51.1L240.8,51.1z"/>
				</g>
			</g>
			<g>
				<g>
					<path class="st1" d="M250.2,89.1c3.9,0,7.7-3.4,7.5-7.5c-0.2-4.1-3.3-7.5-7.5-7.5c-3.9,0-7.7,3.4-7.5,7.5
						C242.9,85.7,246,89.1,250.2,89.1L250.2,89.1z"/>
				</g>
			</g>
			<g>
				<g>
					<path class="st2" d="M295.1,55.8c2.6,0,5.1-2.3,5-5c-0.1-2.7-2.2-5-5-5c-2.6,0-5.1,2.3-5,5C290.2,53.6,292.3,55.8,295.1,55.8
						L295.1,55.8z"/>
				</g>
			</g>
			<g>
				<g>
					<path class="st3" d="M223.4,71.1c3.9,0,7.7-3.4,7.5-7.5c-0.2-4.1-3.3-7.5-7.5-7.5c-3.9,0-7.7,3.4-7.5,7.5
						C216.1,67.7,219.2,71.1,223.4,71.1L223.4,71.1z"/>
				</g>
			</g>
			<g>
				<g>
					<path class="st3" d="M113.5,61.9c3.9,0,7.7-3.4,7.5-7.5c-0.2-4.1-3.3-7.5-7.5-7.5c-3.9,0-7.7,3.4-7.5,7.5
						C106.2,58.5,109.3,61.9,113.5,61.9L113.5,61.9z"/>
				</g>
			</g>
			<g>
				<g>
					<path class="st4" d="M163.3,87.9c3.9,0,7.7-3.4,7.5-7.5c-0.2-4.1-3.3-7.5-7.5-7.5c-3.9,0-7.7,3.4-7.5,7.5
						C155.9,84.4,159.1,87.9,163.3,87.9L163.3,87.9z"/>
				</g>
			</g>
			<g>
				<g>
					<path class="st4" d="M207,33.9c2.6,0,5.1-2.3,5-5c-0.1-2.7-2.2-5-5-5c-2.6,0-5.1,2.3-5,5C202.1,31.6,204.2,33.9,207,33.9
						L207,33.9z"/>
				</g>
			</g>
			<g>
				<g>
					<path class="st4" d="M275,112.6c2.6,0,5.1-2.3,5-5c-0.1-2.7-2.2-5-5-5c-2.6,0-5.1,2.3-5,5C270.1,110.3,272.2,112.6,275,112.6
						L275,112.6z"/>
				</g>
			</g>
			<g>
				<g>
					<path class="st4" d="M316.4,19.8c2.6,0,5.1-2.3,5-5c-0.1-2.7-2.2-5-5-5c-2.6,0-5.1,2.3-5,5C311.5,17.5,313.6,19.8,316.4,19.8
						L316.4,19.8z"/>
				</g>
			</g>
			<g>
				<g>
					<path class="st4" d="M93.2,38.2c3.2,0,3.2-5,0-5C89.9,33.2,89.9,38.2,93.2,38.2L93.2,38.2z"/>
				</g>
			</g>
			<g>
				<g>
					<path class="st4" d="M291.2,69.4c3.2,0,3.2-5,0-5S288,69.4,291.2,69.4L291.2,69.4z"/>
				</g>
			</g>
			<g>
				<g>
					<path class="st2" d="M313.8,28c3.2,0,3.2-5,0-5C310.6,23,310.6,28,313.8,28L313.8,28z"/>
				</g>
			</g>
			<g>
				<g>
					<path class="st2" d="M234.9,70.1c3.2,0,3.2-5,0-5S231.7,70.1,234.9,70.1L234.9,70.1z"/>
				</g>
			</g>
			<g>
				<g>
					<path class="st2" d="M304.5,91.4c3.2,0,3.2-5,0-5S301.3,91.4,304.5,91.4L304.5,91.4z"/>
				</g>
			</g>
			<g>
				<g>
					<path class="st2" d="M105.7,88.9c3.2,0,3.2-5,0-5C102.5,83.9,102.5,88.9,105.7,88.9L105.7,88.9z"/>
				</g>
			</g>
			<g>
				<g>
					<path class="st2" d="M203.7,44.8c3.2,0,3.2-5,0-5S200.5,44.8,203.7,44.8L203.7,44.8z"/>
				</g>
			</g>
			<g>
				<g>
					<path class="st2" d="M365.8-6.1c3.2,0,3.2-5,0-5S362.5-6.1,365.8-6.1L365.8-6.1z"/>
				</g>
			</g>
			<g>
				<g>
					<path class="st2" d="M309.5,122.1c3.2,0,3.2-5,0-5S306.2,122.1,309.5,122.1L309.5,122.1z"/>
				</g>
			</g>
		</g>
		<path class="st9" d="M122.3,58.2c-0.2,2.6-0.4,15.4,0.3,20c0.7,5.5,3.1,16.5,6.5,16.6c4.2,0.1,6.7-16.5,11.1-16.4
			c4.2,0.1,4.3,15.1,10.6,16c6.9,0.9,12.8-12.7,22.5-12.5c8.6,0.1,9,10.2,21.1,12.7c11.3,2.4,16.5-8.2,33.3-8.5
			c13.7-0.2,17.4,6.6,33.3,8.5c13.7,1.6,25.7-1.7,33.3-4.4"/>
		<path class="st10" d="M120.2,51.3c-0.2,3.4-0.3,20.3,0.3,26.5c0.7,7.3,3,21.8,6.4,21.9c4.1,0.2,6.6-21.8,10.9-21.7
			c4.1,0.2,4.2,20,10.3,21.2c6.7,1.2,12.4-16.8,22-16.6c8.4,0.2,8.8,13.5,20.6,16.9c11,3.1,16.1-10.9,32.5-11.2
			c13.4-0.3,17,8.7,32.5,11.2c13.4,2.2,25.1-2.2,32.5-5.9"/>
		<path d="M75.4,48.8"/>
		<path class="st11" d="M114.1,53.2c-0.2,3.5-0.4,20.8,0.3,27.1c0.8,7.5,3.2,22.3,6.8,22.4c4.4,0.2,7-22.3,11.6-22.2
			c4.4,0.2,4.5,20.5,11.1,21.6c7.2,1.2,13.4-17.2,23.6-17c9.1,0.2,9.5,13.8,22.1,17.2c11.8,3.2,17.2-11.1,34.9-11.5
			c14.3-0.3,18.2,8.9,34.9,11.5c14.4,2.2,27-2.3,34.9-6"/>
		<path class="st12" d="M104,32.9h7.6c7.5,0,13.6,6.1,13.6,13.6v10.6c0,0.9-0.7,1.7-1.7,1.7H92c-0.9,0-1.7-0.7-1.7-1.7V46.5
			C90.4,39,96.5,32.9,104,32.9z"/>
		<path class="st12" d="M55.4,106.8h-7.6c-7.5,0-13.6-6.1-13.6-13.6V54.2c0-0.9,0.7-1.7,1.7-1.7h31.6c0.9,0,1.7,0.7,1.7,1.7v38.9
			C69.1,100.7,63,106.8,55.4,106.8z"/>
		<path class="st12" d="M65.2,32.4h7.6c7.5,0,13.6,6.1,13.6,13.6v38.9c0,0.9-0.7,1.7-1.7,1.7H53.3c-0.9,0-1.7-0.7-1.7-1.7V46
			C51.6,38.5,57.7,32.4,65.2,32.4z"/>
		<path class="st12" d="M91.6,107.4H84c-7.5,0-13.6-6.1-13.6-13.6V54.9c0-0.9,0.7-1.7,1.7-1.7h31.6c0.9,0,1.7,0.7,1.7,1.7v38.9
			C105.2,101.3,99.1,107.4,91.6,107.4z"/>
		<path class="st10" d="M45,53.3c-0.2,5.4-0.3,28.5,0.3,33.6c0.7,6,0.8,7.2,4.2,7.3c4.2,0.1,6.5,1.3,7.2-2.7
			c1.3-7.1-0.1-39.3,1.9-46.6c2.1-7.6,16.2-13,20.9-5.2c12,19.8-2.2,48.3,9.8,51c11.2,2.5-2.7-44.8,11.6-53
			c6.9-3.9,20.3-5.8,20,23.2"/>
		<path class="st13" d="M52.8,86.6c0.2-7.5-0.2-10.8-0.2-14.9c-0.9-38,25.4-48,31.2-24.4c3.2,13,2.9,27.1,4,41.5"/>
		<path class="st13" d="M90.4,61.7c-3.3-9.1,7.1-26.7,12.3-27.1c4.9-0.4,19.4-4.4,22.6,23.1"/>
		<path class="st14" d="M85.9,49.6c1.4,18.1-1.5,38.3,2,40.5c2.9,1.9,1-23.9,1.8-40.5"/>
		<path class="st14" d="M47.4,51.9C49.6,70,45,90.2,50.6,92.4c4.6,1.9,1.6-23.9,2.9-40.5"/>
		<path d="M155.1,76.4"/>
		<text transform="matrix(0.8908 1.808243e-03 -2.200000e-03 1 138.8523 67.5976)" class="st15 st16">ost</text>
		<g>
			<g>
				<g>
					<path class="st1" d="M270.5,116.9c3.9,0,7.7-3.4,7.5-7.5c-0.2-4.1-3.3-7.5-7.5-7.5c-3.9,0-7.7,3.4-7.5,7.5
						C263.2,113.4,266.3,116.9,270.5,116.9L270.5,116.9z"/>
				</g>
			</g>
			<g>
				<g>
					<path class="st1" d="M285.1,98.9c3.9,0,7.7-3.4,7.5-7.5c-0.2-4.1-3.3-7.5-7.5-7.5c-3.9,0-7.7,3.4-7.5,7.5
						C277.8,95.5,280.9,98.9,285.1,98.9L285.1,98.9z"/>
				</g>
			</g>
			<g>
				<g>
					<path class="st1" d="M293.8,104.2c3.9,0,7.7-3.4,7.5-7.5c-0.2-4.1-3.3-7.5-7.5-7.5c-3.9,0-7.7,3.4-7.5,7.5
						C286.5,100.8,289.6,104.2,293.8,104.2L293.8,104.2z"/>
				</g>
			</g>
			<g>
				<g>
					<path class="st2" d="M294.7,93.2c2.6,0,5.1-2.3,5-5c-0.1-2.7-2.2-5-5-5c-2.6,0-5.1,2.3-5,5C289.8,90.9,291.9,93.2,294.7,93.2
						L294.7,93.2z"/>
				</g>
			</g>
			<g>
				<g>
					<path class="st3" d="M286.3,103.5c3.9,0,7.7-3.4,7.5-7.5c-0.2-4.1-3.3-7.5-7.5-7.5c-3.9,0-7.7,3.4-7.5,7.5
						C279,100.1,282.1,103.5,286.3,103.5L286.3,103.5z"/>
				</g>
			</g>
			<g>
				<g>
					<path class="st3" d="M268,110.9c3.9,0,7.7-3.4,7.5-7.5c-0.2-4.1-3.3-7.5-7.5-7.5c-3.9,0-7.7,3.4-7.5,7.5
						C260.7,107.4,263.8,110.9,268,110.9L268,110.9z"/>
				</g>
			</g>
			<g>
				<g>
					<path class="st4" d="M280.5,111c3.9,0,7.7-3.4,7.5-7.5c-0.2-4.1-3.3-7.5-7.5-7.5c-3.9,0-7.7,3.4-7.5,7.5
						C273.2,107.6,276.3,111,280.5,111L280.5,111z"/>
				</g>
			</g>
			<g>
				<g>
					<path class="st4" d="M277.2,96.8c2.6,0,5.1-2.3,5-5c-0.1-2.7-2.2-5-5-5c-2.6,0-5.1,2.3-5,5C272.3,94.5,274.4,96.8,277.2,96.8
						L277.2,96.8z"/>
				</g>
			</g>
			<g>
				<g>
					<path class="st4" d="M302.6,103.9c2.6,0,5.1-2.3,5-5c-0.1-2.7-2.2-5-5-5c-2.6,0-5.1,2.3-5,5
						C297.7,101.6,299.8,103.9,302.6,103.9L302.6,103.9z"/>
				</g>
			</g>
			<g>
				<g>
					<path class="st4" d="M290.9,85.8c2.6,0,5.1-2.3,5-5c-0.1-2.7-2.2-5-5-5c-2.6,0-5.1,2.3-5,5C286,83.5,288.1,85.8,290.9,85.8
						L290.9,85.8z"/>
				</g>
			</g>
			<g>
				<g>
					<path class="st4" d="M261.3,104.5c3.2,0,3.2-5,0-5C258.1,99.5,258.1,104.5,261.3,104.5L261.3,104.5z"/>
				</g>
			</g>
			<g>
				<g>
					<path class="st4" d="M297.2,93.6c3.2,0,3.2-5,0-5S294,93.6,297.2,93.6L297.2,93.6z"/>
				</g>
			</g>
			<g>
				<g>
					<path class="st2" d="M292.6,85.2c3.2,0,3.2-5,0-5S289.4,85.2,292.6,85.2L292.6,85.2z"/>
				</g>
			</g>
			<g>
				<g>
					<path class="st2" d="M288.8,98.2c3.2,0,3.2-5,0-5C285.6,93.2,285.6,98.2,288.8,98.2L288.8,98.2z"/>
				</g>
			</g>
			<g>
				<g>
					<path class="st2" d="M303.4,96.1c3.2,0,3.2-5,0-5S300.2,96.1,303.4,96.1L303.4,96.1z"/>
				</g>
			</g>
			<g>
				<g>
					<path class="st2" d="M273,111.6c3.2,0,3.2-5,0-5S269.8,111.6,273,111.6L273,111.6z"/>
				</g>
			</g>
			<g>
				<g>
					<path class="st2" d="M279.2,96.7c3.2,0,3.2-5,0-5S276,96.7,279.2,96.7L279.2,96.7z"/>
				</g>
			</g>
			<g>
				<g>
					<path class="st2" d="M293.8,75.6c3.2,0,3.2-5,0-5S290.6,75.6,293.8,75.6L293.8,75.6z"/>
				</g>
			</g>
			<g>
				<g>
					<path class="st2" d="M310.1,100.6c3.2,0,3.2-5,0-5S306.9,100.6,310.1,100.6L310.1,100.6z"/>
				</g>
			</g>
		</g>
		<g>
			<g>
				<g>
					<path class="st1" d="M39.9,60c3.9,0,7.7-3.4,7.5-7.5c-0.2-4.1-3.3-7.5-7.5-7.5c-3.9,0-7.7,3.4-7.5,7.5
						C32.5,56.5,35.7,60,39.9,60L39.9,60z"/>
				</g>
			</g>
			<g>
				<g>
					<path class="st1" d="M47.1,45.7c3.9,0,7.7-3.4,7.5-7.5c-0.2-4.1-3.3-7.5-7.5-7.5c-3.9,0-7.7,3.4-7.5,7.5
						C39.8,42.2,42.9,45.7,47.1,45.7L47.1,45.7z"/>
				</g>
			</g>
			<g>
				<g>
					<path class="st1" d="M39,42.6c3.9,0,7.7-3.4,7.5-7.5c-0.2-4.1-3.3-7.5-7.5-7.5c-3.9,0-7.7,3.4-7.5,7.5
						C31.7,39.1,34.8,42.6,39,42.6L39,42.6z"/>
				</g>
			</g>
			<g>
				<g>
					<path class="st2" d="M45.2,36.7c2.6,0,5.1-2.3,5-5c-0.1-2.7-2.2-5-5-5c-2.6,0-5.1,2.3-5,5C40.3,34.4,42.4,36.7,45.2,36.7
						L45.2,36.7z"/>
				</g>
			</g>
			<g>
				<g>
					<path class="st3" d="M43,46.5c3.9,0,7.7-3.4,7.5-7.5c-0.2-4.1-3.3-7.5-7.5-7.5c-3.9,0-7.7,3.4-7.5,7.5
						C35.7,43.1,38.8,46.5,43,46.5L43,46.5z"/>
				</g>
			</g>
			<g>
				<g>
					<path class="st3" d="M45.7,59.3c3.9,0,7.7-3.4,7.5-7.5c-0.2-4.1-3.3-7.5-7.5-7.5c-3.9,0-7.7,3.4-7.5,7.5
						C38.4,55.9,41.5,59.3,45.7,59.3L45.7,59.3z"/>
				</g>
			</g>
			<g>
				<g>
					<path class="st4" d="M39.8,52.3c3.9,0,7.7-3.4,7.5-7.5c-0.2-4.1-3.3-7.5-7.5-7.5c-3.9,0-7.7,3.4-7.5,7.5
						C32.5,48.9,35.6,52.3,39.8,52.3L39.8,52.3z"/>
				</g>
			</g>
			<g>
				<g>
					<path class="st4" d="M50.5,47.7c2.6,0,5.1-2.3,5-5c-0.1-2.7-2.2-5-5-5c-2.6,0-5.1,2.3-5,5C45.6,45.4,47.7,47.7,50.5,47.7
						L50.5,47.7z"/>
				</g>
			</g>
			<g>
				<g>
					<path class="st4" d="M33.3,35.9c2.6,0,5.1-2.3,5-5c-0.1-2.7-2.2-5-5-5c-2.6,0-5.1,2.3-5,5C28.4,33.6,30.5,35.9,33.3,35.9
						L33.3,35.9z"/>
				</g>
			</g>
			<g>
				<g>
					<path class="st4" d="M52.8,36.2c2.6,0,5.1-2.3,5-5c-0.1-2.7-2.2-5-5-5c-2.6,0-5.1,2.3-5,5C47.9,34,49.9,36.2,52.8,36.2
						L52.8,36.2z"/>
				</g>
			</g>
			<g>
				<g>
					<path class="st4" d="M49.8,57.6c3.2,0,3.2-5,0-5S46.6,57.6,49.8,57.6L49.8,57.6z"/>
				</g>
			</g>
			<g>
				<g>
					<path class="st4" d="M41.8,33.8c3.2,0,3.2-5,0-5C38.6,28.8,38.6,33.8,41.8,33.8L41.8,33.8z"/>
				</g>
			</g>
			<g>
				<g>
					<path class="st2" d="M50.5,33.5c3.2,0,3.2-5,0-5S47.3,33.5,50.5,33.5L50.5,33.5z"/>
				</g>
			</g>
			<g>
				<g>
					<path class="st2" d="M42.1,40c3.2,0,3.2-5,0-5C38.8,35,38.8,40,42.1,40L42.1,40z"/>
				</g>
			</g>
			<g>
				<g>
					<path class="st2" d="M37.1,31.1c3.2,0,3.2-5,0-5S33.8,31.1,37.1,31.1L37.1,31.1z"/>
				</g>
			</g>
			<g>
				<g>
					<path class="st2" d="M38.9,53.5c3.2,0,3.2-5,0-5S35.7,53.5,38.9,53.5L38.9,53.5z"/>
				</g>
			</g>
			<g>
				<g>
					<path class="st2" d="M47.7,44.9c3.2,0,3.2-5,0-5C44.4,39.9,44.4,44.9,47.7,44.9L47.7,44.9z"/>
				</g>
			</g>
			<g>
				<g>
					<path class="st2" d="M57.4,29.5c3.2,0,3.2-5,0-5S54.2,29.5,57.4,29.5L57.4,29.5z"/>
				</g>
			</g>
			<g>
				<g>
					<path class="st2" d="M30.5,28.9c3.2,0,3.2-5,0-5C27.3,23.9,27.3,28.9,30.5,28.9L30.5,28.9z"/>
				</g>
			</g>
		</g>
		<g>
			<path d="M129.5,55.6l0.4,5c-0.1,1.3-0.1,3.7,1.4,6.2c3,5.2,11.9,4.6,11.9,5.7c0,0.4-1.1,1-6.8,1.7c-2.2-0.2-6.2-0.8-9.4-3.7
				c-3.3-3.1-4.3-7.1-4.3-9.4c0-20-0.4-4.6-0.4-5.4c0.3-12.4-5.9-20.1-14.5-20.1c-8.8,0-16.2,6.5-16.2,18.5L92,90h-7.2l-0.4-35.9
				c0-12.1-5.3-18.5-14.1-18.5c-8.7,0-16.2,6.1-16.2,18.5L54.6,90h-7.2L47,54.1c0-17.3,10.5-25.9,22.8-25.9c9,0,15.9,4.8,19.2,13.6
				c3.3-8.8,10.3-13.6,19.2-13.7C120.6,28.2,129.5,38.3,129.5,55.6z"/>
		</g>
		<g>
			<path d="M28.4,85.3l0.3-44.6c0.1-1.3,0.1-3.7-1.3-6.2c-3-5.2-12-4.6-11.9-5.8c0-0.4,1.2-1,6.8-1.6c2.2,0.2,6.2,0.8,9.4,3.7
				c3.3,3.1,4.3,7.1,4.3,9.4c0,18.9-0.3,26.1-0.3,45c0,12.4,6.5,18.7,15.1,18.7c8.8,0,15.1-6.6,15.1-18.7l0.3-36.8h7.2L73,85.3
				c0,12.1,6.4,18.7,15.1,18.7c8.7,0,15.1-6.3,15.1-18.7l0.3-36.8h7.2l-0.3,36.8c0,17.3-9.5,26.1-21.8,26.1c-9,0-15.9-4.8-19.2-13.6
				c-3.3,8.8-10.3,13.6-19.2,13.6C37.9,111.4,28.4,102.7,28.4,85.3z"/>
		</g>
		<text transform="matrix(0.8908 1.808243e-03 -2.200000e-03 1 113.9009 111.1887)" class="st15 st16">holesome</text>
	</g>
	<rect x="208.3" y="102" class="st5" width="161.1" height="90"/>
	<text transform="matrix(1 0 0 1 208.2724 142.9161)" class="st17 st18 st19">Cafe</text>
	<text transform="matrix(1 0 0 1 208.2724 142.9161)" class="st20 st18 st19">Cafe</text>
</g>
<rect x="271" y="221.2" class="st5" width="141.6" height="327.8"/>
<text transform="matrix(1 0 0 1 194.9763 184.1893)" class="st6 st7">Soft Drinks</text>
<text transform="matrix(1 0 0 1 194.9763 205.9893)" class="st8 st7">Milkshake </text>
<text transform="matrix(1 0 0 1 194.9763 222.7893)" class="st8 st7">Cans (Fizz)</text>
<text transform="matrix(1 0 0 1 194.9763 239.5893)" class="st8 st7">Ribena</text>
<text transform="matrix(1 0 0 1 194.9763 256.3893)" class="st8 st7">Water</text>
<text transform="matrix(1 0 0 1 194.9763 289.9893)" class="st6 st7">Bottled Beers</text>
<text transform="matrix(1 0 0 1 194.9763 306.7893)" class="st8 st7"> </text>
<text transform="matrix(1 0 0 1 194.9763 311.7893)" class="st8 st7">Spitfire</text>
<text transform="matrix(1 0 0 1 194.9763 328.5893)" class="st8 st7">Doombar</text>
<text transform="matrix(1 0 0 1 194.9763 345.3893)" class="st8 st7">Hobgoblin</text>
<text transform="matrix(1 0 0 1 194.9763 362.1893)" class="st8 st7">Dog Bolter</text>
<text transform="matrix(1 0 0 1 194.9763 395.7893)" class="st6 st7">Others</text>
<text transform="matrix(1 0 0 1 194.9763 412.5893)" class="st8 st7"> </text>
<text transform="matrix(1 0 0 1 194.9763 417.5893)" class="st8 st7">English Tea</text>
<text transform="matrix(1 0 0 1 194.9763 434.3893)" class="st8 st7">Coffee</text>
<text transform="matrix(1 0 0 1 194.9763 451.1893)" class="st8 st7">Hot Chocolate</text>
<text transform="matrix(1 0 0 1 194.9763 467.9893)" class="st8 st7">Green Tea</text>
<rect x="393.8" y="219.7" class="st5" width="91.4" height="328.8"/>
<text transform="matrix(1 0 0 1 290.7592 183.6544)" class="st6 st7">Price</text>
<text transform="matrix(1 0 0 1 321.7592 183.6544)" class="st8 st7"> </text>
<text transform="matrix(1 0 0 1 290.7592 205.4544)" class="st8 st7">£2.00 </text>
<text transform="matrix(1 0 0 1 290.7592 222.2544)" class="st8 st7">£1.00 </text>
<text transform="matrix(1 0 0 1 290.7592 239.0544)" class="st8 st7">£1.00 </text>
<text transform="matrix(1 0 0 1 290.7592 255.8544)" class="st8 st7">Free</text>
<text transform="matrix(1 0 0 1 290.7592 289.4544)" class="st6 st7">Price</text>
<text transform="matrix(1 0 0 1 290.7592 306.2544)" class="st8 st7"> </text>
<text transform="matrix(1 0 0 1 290.7592 311.2544)" class="st8 st7">£3.50 </text>
<text transform="matrix(1 0 0 1 290.7592 328.0544)" class="st8 st7">£3.50 </text>
<text transform="matrix(1 0 0 1 290.7592 344.8544)" class="st8 st7">£3.50 </text>
<text transform="matrix(1 0 0 1 290.7592 361.6544)" class="st8 st7">£3.50 </text>
<text transform="matrix(1 0 0 1 290.7592 395.2544)" class="st6 st7">Price</text>
<text transform="matrix(1 0 0 1 290.7592 417.0544)" class="st8 st7">£1.00 </text>
<text transform="matrix(1 0 0 1 290.7592 433.8544)" class="st8 st7">£1.50 </text>
<text transform="matrix(1 0 0 1 290.7592 450.6544)" class="st8 st7">£1.50 </text>
<text transform="matrix(1 0 0 1 290.7592 467.4544)" class="st8 st7">£1.00</text>
</svg>
